<?xml version="1.0" encoding="UTF-8" standalone="no"?>
<svg
   version="1.1"
   width="1500"
   height="1500"
   viewBox="0 0 1500 1500"
   id="svg16"
   sodipodi:docname="logo-color.svg"
   inkscape:version="1.3.2 (091e20ef0f, 2023-11-25, custom)"
   xmlns:inkscape="http://www.inkscape.org/namespaces/inkscape"
   xmlns:sodipodi="http://sodipodi.sourceforge.net/DTD/sodipodi-0.dtd"
   xmlns="http://www.w3.org/2000/svg"
   xmlns:svg="http://www.w3.org/2000/svg">
  <defs
     id="defs16" />
  <sodipodi:namedview
     id="namedview16"
     pagecolor="#ffffff"
     bordercolor="#000000"
     borderopacity="0.25"
     inkscape:showpageshadow="2"
     inkscape:pageopacity="0.0"
     inkscape:pagecheckerboard="0"
     inkscape:deskcolor="#d1d1d1"
     inkscape:zoom="0.78508729"
     inkscape:cx="664.25735"
     inkscape:cy="779.53115"
     inkscape:window-width="2554"
     inkscape:window-height="1376"
     inkscape:window-x="0"
     inkscape:window-y="33"
     inkscape:window-maximized="1"
     inkscape:current-layer="svg16" />
  <g
     transform="matrix(0.6666666666666666,0,0,0.6666666666666666,250.08615446667017,268.05721997300947)"
     id="g15">
    <svg
       viewBox="0 0 256 247"
       data-background-color="#ffffff"
       preserveAspectRatio="xMidYMid meet"
       height="1447"
       width="1500"
       version="1.1"
       id="svg15">
      <g
         id="tight-bounds"
         transform="matrix(1,0,0,1,-0.02205554346755889,-0.09999999999999432)">
        <svg
           viewBox="0 0 256.0441110869351 247.2"
           height="247.2"
           width="256.0441110869351"
           version="1.1"
           id="svg14">
          <g
             id="g14">
            <svg
               viewBox="0 0 395.52 381.8582024204536"
               height="247.2"
               width="256.0441110869351"
               version="1.1"
               id="svg13">
              <g
                 transform="matrix(1,0,0,1,0,254.02326131691981)"
                 id="g5">
                <svg
                   viewBox="0 0 395.52 127.83494110353378"
                   height="127.83494110353378"
                   width="395.52"
                   version="1.1"
                   id="svg5">
                  <g
                     id="textblocktransform">
                    <svg
                       viewBox="0 0 395.52 127.83494110353378"
                       height="127.83494110353378"
                       width="395.52"
                       id="textblock"
                       version="1.1">
                      <g
                         id="g4">
                        <svg
                           viewBox="0 0 395.52 127.83494110353378"
                           height="127.83494110353378"
                           width="395.52"
                           version="1.1"
                           id="svg4">
                          <g
                             transform="matrix(1,0,0,1,0,0)"
                             id="g3">
                            <svg
                               width="395.52"
                               viewBox="122.73 -26.05 241.95 65.95"
                               height="127.83494110353378"
                               data-palette-color="#919591"
                               version="1.1"
                               id="svg3">
                              <svg
                                 version="1.1"
                                 id="svg1" />
                              <svg
                                 version="1.1"
                                 id="svg2" />
                              <g
                                 class="wordmark-text-0"
                                 data-fill-palette-color="primary"
                                 id="text-0">
                                <path
                                   transform="translate(154,0)"
                                   d="M21.05 0h-4.55v-17.2h4.55zM10.4 0.75v0l0.35-3.75c1.2 0 2.227-0.3 3.08-0.9 0.847-0.6 1.503-1.483 1.97-2.65 0.467-1.167 0.7-2.55 0.7-4.15v0l2.25-0.1c0 2.267-0.367 4.267-1.1 6-0.733 1.733-1.723 3.09-2.97 4.07-1.253 0.987-2.68 1.48-4.28 1.48zM10.75-3l-0.35 3.75c-1.5 0-2.867-0.35-4.1-1.05-1.233-0.7-2.217-1.66-2.95-2.88-0.733-1.213-1.1-2.57-1.1-4.07v0l4.3-0.15c0 1.267 0.427 2.317 1.28 3.15 0.847 0.833 1.82 1.25 2.92 1.25zM6.55-7.4l-4.3 0.15c0-1.567 0.393-2.943 1.18-4.13 0.78-1.18 1.837-2.12 3.17-2.82 1.333-0.7 2.85-1.05 4.55-1.05v0l0.25 3.5c-1.4 0-2.557 0.407-3.47 1.22-0.92 0.82-1.38 1.863-1.38 3.13zM18.85-11.75h-7.45l-0.25-3.5h7.7zM18.75-10.8l-2.25 0.1v-6.45h2.25zM21.05-17.1v0h-4.55c0-1.467-0.44-2.667-1.32-3.6-0.887-0.933-2.03-1.4-3.43-1.4v0-3.9c1.8 0 3.393 0.383 4.78 1.15 1.38 0.767 2.48 1.823 3.3 3.17 0.813 1.353 1.22 2.88 1.22 4.58zM7.05-17.7v0l-4.2-0.85c0.2-1.5 0.71-2.8 1.53-3.9 0.813-1.1 1.863-1.967 3.15-2.6 1.28-0.633 2.703-0.95 4.27-0.95v0 3.9c-1.233 0-2.29 0.357-3.17 1.07-0.887 0.72-1.413 1.83-1.58 3.33zM50 0h-4.2l6.4-25.25h4.55zM35.75 0h-4.2l-6.75-25.25h4.55zM36.15 0h-3.9l6.5-25.25h4zM49.3 0h-3.85l-6.65-25.25h4zM77.4-11.25h-17.05v-3.25h17.05zM68.35 0.8h-0.25v-3.95h0.25zM63.45-8.95h-4.55v-7.35h4.55zM77.4-14.5h-4.55v-2.6h4.55zM77.4-17.1v0h-4.55c0-1.467-0.44-2.667-1.32-3.6-0.887-0.933-2.03-1.4-3.43-1.4v0-3.9c1.8 0 3.393 0.383 4.78 1.15 1.38 0.767 2.477 1.823 3.29 3.17 0.82 1.353 1.23 2.88 1.23 4.58zM73.05-7.5v0l4.25 0.85c-0.2 1.433-0.717 2.717-1.55 3.85-0.833 1.133-1.883 2.017-3.15 2.65-1.267 0.633-2.683 0.95-4.25 0.95v0-3.95c1.2 0 2.24-0.36 3.12-1.08 0.887-0.713 1.413-1.803 1.58-3.27zM63.45-16.25h-4.55c0-1.9 0.41-3.577 1.23-5.03 0.813-1.447 1.91-2.597 3.29-3.45 1.387-0.847 2.963-1.27 4.73-1.27v0 3.9c-1.467 0-2.617 0.507-3.45 1.52-0.833 1.02-1.25 2.463-1.25 4.33zM58.9-8.95v0h4.55c0 1.833 0.417 3.26 1.25 4.28 0.833 1.013 1.983 1.52 3.45 1.52v0 3.95c-1.767 0-3.343-0.427-4.73-1.28-1.38-0.847-2.477-2.003-3.29-3.47-0.82-1.467-1.23-3.133-1.23-5zM94-6.5v0c0-0.833-0.3-1.527-0.9-2.08-0.6-0.547-1.373-1.047-2.32-1.5-0.953-0.447-1.953-0.903-3-1.37-1.053-0.467-2.053-1.01-3-1.63-0.953-0.613-1.73-1.397-2.33-2.35-0.6-0.947-0.9-2.103-0.9-3.47v0c0 0 0.143 0 0.43 0 0.28 0 0.647 0 1.1 0 0.447 0 0.887 0 1.32 0 0.433 0 0.8 0 1.1 0 0.3 0 0.45 0 0.45 0v0c0 0.833 0.3 1.527 0.9 2.08 0.6 0.547 1.377 1.037 2.33 1.47 0.947 0.433 1.953 0.89 3.02 1.37 1.067 0.487 2.067 1.047 3 1.68 0.933 0.633 1.71 1.407 2.33 2.32 0.613 0.92 0.92 2.08 0.92 3.48v0c0 0-0.15 0-0.45 0-0.3 0-0.673 0-1.12 0-0.453 0-0.897 0-1.33 0-0.433 0-0.8 0-1.1 0-0.3 0-0.45 0-0.45 0zM89.75 0.75v0-3.95c1.233 0 2.25-0.31 3.05-0.93 0.8-0.613 1.2-1.403 1.2-2.37v0h4.45c0 1.4-0.373 2.65-1.12 3.75-0.753 1.1-1.78 1.957-3.08 2.57-1.3 0.62-2.8 0.93-4.5 0.93zM85.95-18.9h-4.4c0-1.367 0.343-2.593 1.03-3.68 0.68-1.08 1.637-1.93 2.87-2.55 1.233-0.613 2.6-0.92 4.1-0.92v0 3.95c-1.033 0-1.89 0.3-2.57 0.9-0.687 0.6-1.03 1.367-1.03 2.3zM80.8-6.7l4.2-0.85c0.167 1.467 0.7 2.557 1.6 3.27 0.9 0.72 1.95 1.08 3.15 1.08v0 3.95c-1.533 0-2.95-0.317-4.25-0.95-1.3-0.633-2.357-1.517-3.17-2.65-0.82-1.133-1.33-2.417-1.53-3.85zM98.5-18.6l-4.25 0.85c-0.167-1.5-0.69-2.6-1.57-3.3-0.887-0.7-1.93-1.05-3.13-1.05v0-3.95c1.567 0 2.983 0.317 4.25 0.95 1.267 0.633 2.317 1.507 3.15 2.62 0.833 1.12 1.35 2.413 1.55 3.88zM120.5-8.95h-4.55v-7.35h4.55zM106.45-8.95h-4.55v-7.35h4.55zM111.35-22.05h-0.3v-3.95h0.3zM111.35 0.75h-0.3v-3.95h0.3zM106.45-16.25h-4.55c0-1.867 0.41-3.533 1.23-5 0.813-1.467 1.913-2.627 3.3-3.48 1.38-0.847 2.953-1.27 4.72-1.27v0 3.95c-1.467 0-2.617 0.5-3.45 1.5-0.833 1-1.25 2.433-1.25 4.3zM120.5-16.25v0h-4.55c0-1.867-0.407-3.3-1.22-4.3-0.82-1-1.98-1.5-3.48-1.5v0-3.95c1.767 0 3.343 0.423 4.73 1.27 1.38 0.853 2.48 2.013 3.3 3.48 0.813 1.467 1.22 3.133 1.22 5zM101.9-9v0h4.55c0 1.833 0.417 3.257 1.25 4.27 0.833 1.02 1.983 1.53 3.45 1.53v0 3.95c-1.767 0-3.34-0.427-4.72-1.28-1.387-0.847-2.487-2.003-3.3-3.47-0.82-1.467-1.23-3.133-1.23-5zM115.95-9h4.55c0 1.867-0.407 3.533-1.22 5-0.82 1.467-1.92 2.623-3.3 3.47-1.387 0.853-2.963 1.28-4.73 1.28v0-3.95c1.5 0 2.66-0.51 3.48-1.53 0.813-1.013 1.22-2.437 1.22-4.27zM129.7 0h-4.55v-25.25h4.55zM142.75 0h-4.55v-17.2h4.55zM129.7-17.1h-2.05c0-1.7 0.327-3.227 0.98-4.58 0.647-1.347 1.537-2.403 2.67-3.17 1.133-0.767 2.4-1.15 3.8-1.15v0l-1.15 4.05c-1.2 0-2.207 0.45-3.02 1.35-0.82 0.9-1.23 2.067-1.23 3.5zM142.75-17.2h-4.55c0-1.4-0.4-2.543-1.2-3.43-0.8-0.88-1.817-1.32-3.05-1.32v0l1.15-4.05c1.467 0 2.777 0.383 3.93 1.15 1.147 0.767 2.053 1.807 2.72 3.12 0.667 1.32 1 2.83 1 4.53zM155.75 0h-4.55v-17.2h4.55zM142.75-17.1h-2.05c0-1.7 0.327-3.227 0.98-4.58 0.647-1.347 1.53-2.403 2.65-3.17 1.113-0.767 2.37-1.15 3.77-1.15v0l-1.15 4.05c-1.2 0-2.2 0.45-3 1.35-0.8 0.9-1.2 2.067-1.2 3.5zM155.75-17.2h-4.55c0-1.4-0.39-2.543-1.17-3.43-0.787-0.88-1.813-1.32-3.08-1.32v0l1.15-4.05c1.467 0 2.777 0.383 3.93 1.15 1.147 0.767 2.053 1.807 2.72 3.12 0.667 1.32 1 2.83 1 4.53zM178.15-11.25h-17.05v-3.25h17.05zM169.1 0.8h-0.25v-3.95h0.25zM164.2-8.95h-4.55v-7.35h4.55zM178.15-14.5h-4.55v-2.6h4.55zM178.15-17.1v0h-4.55c0-1.467-0.44-2.667-1.32-3.6-0.887-0.933-2.03-1.4-3.43-1.4v0-3.9c1.8 0 3.393 0.383 4.78 1.15 1.38 0.767 2.48 1.823 3.3 3.17 0.813 1.353 1.22 2.88 1.22 4.58zM173.8-7.5v0l4.25 0.85c-0.2 1.433-0.717 2.717-1.55 3.85-0.833 1.133-1.883 2.017-3.15 2.65-1.267 0.633-2.683 0.95-4.25 0.95v0-3.95c1.2 0 2.243-0.36 3.13-1.08 0.88-0.713 1.403-1.803 1.57-3.27zM164.2-16.25h-4.55c0-1.9 0.41-3.577 1.23-5.03 0.813-1.447 1.913-2.597 3.3-3.45 1.38-0.847 2.953-1.27 4.72-1.27v0 3.9c-1.467 0-2.617 0.507-3.45 1.52-0.833 1.02-1.25 2.463-1.25 4.33zM159.65-8.95v0h4.55c0 1.833 0.417 3.26 1.25 4.28 0.833 1.013 1.983 1.52 3.45 1.52v0 3.95c-1.767 0-3.34-0.427-4.72-1.28-1.387-0.847-2.487-2.003-3.3-3.47-0.82-1.467-1.23-3.133-1.23-5z"
                                   fill="#919591"
                                   fill-rule="nonzero"
                                   stroke="none"
                                   stroke-width="1"
                                   stroke-linecap="butt"
                                   stroke-linejoin="miter"
                                   stroke-miterlimit="10"
                                   stroke-dasharray=""
                                   stroke-dashoffset="0"
                                   font-family="none"
                                   font-weight="none"
                                   font-size="none"
                                   text-anchor="none"
                                   style="mix-blend-mode: normal"
                                   data-fill-palette-color="primary"
                                   opacity="1"
                                   id="path2" />
                                <path
                                   transform="translate(120.98,39.1)"
                                   d="M9.2-7.65h-4.55v-27.65l4.55 0.05zM15.5-21.5h-13.75v-3.75h13.75zM4.65-7.7v0h4.55c0 0.967 0.133 1.783 0.4 2.45 0.267 0.667 0.65 1.173 1.15 1.52 0.5 0.353 1.1 0.53 1.8 0.53v0l-0.4 3.95c-2.333 0-4.167-0.743-5.5-2.23-1.333-1.48-2-3.553-2-6.22zM14.9-4.05v0l1.8 3.25c-0.667 0.5-1.39 0.883-2.17 1.15-0.787 0.267-1.58 0.4-2.38 0.4v0l0.4-3.95c0.433 0 0.843-0.077 1.23-0.23 0.38-0.147 0.753-0.353 1.12-0.62zM37.05-8.95h-4.55v-7.35h4.55zM23-8.95h-4.55v-7.35h4.55zM27.9-22.05h-0.3v-3.95h0.3zM27.9 0.75h-0.3v-3.95h0.3zM23-16.25h-4.55c0-1.867 0.41-3.533 1.23-5 0.813-1.467 1.913-2.627 3.3-3.48 1.38-0.847 2.953-1.27 4.72-1.27v0 3.95c-1.467 0-2.617 0.5-3.45 1.5-0.833 1-1.25 2.433-1.25 4.3zM37.05-16.25v0h-4.55c0-1.867-0.41-3.3-1.23-4.3-0.813-1-1.97-1.5-3.47-1.5v0-3.95c1.767 0 3.34 0.423 4.72 1.27 1.387 0.853 2.49 2.013 3.31 3.48 0.813 1.467 1.22 3.133 1.22 5zM18.45-9v0h4.55c0 1.833 0.417 3.257 1.25 4.27 0.833 1.02 1.983 1.53 3.45 1.53v0 3.95c-1.767 0-3.34-0.427-4.72-1.28-1.387-0.847-2.487-2.003-3.3-3.47-0.82-1.467-1.23-3.133-1.23-5zM32.5-9h4.55c0 1.867-0.407 3.533-1.22 5-0.82 1.467-1.923 2.623-3.31 3.47-1.38 0.853-2.953 1.28-4.72 1.28v0-3.95c1.5 0 2.657-0.51 3.47-1.53 0.82-1.013 1.23-2.437 1.23-4.27zM55-25.25h4.55v25.25h-4.55zM40.95-25.25h4.55v17.2h-4.55zM40.95-8.05h4.55c0 1.4 0.44 2.54 1.32 3.42 0.887 0.887 2.013 1.33 3.38 1.33v0l-1.15 4.05c-1.567 0-2.957-0.383-4.17-1.15-1.22-0.767-2.18-1.817-2.88-3.15-0.7-1.333-1.05-2.833-1.05-4.5zM55-8.2h2c0 1.7-0.343 3.223-1.03 4.57-0.68 1.353-1.627 2.42-2.84 3.2-1.22 0.787-2.58 1.18-4.08 1.18v0l1.15-4.05c1.4 0 2.55-0.45 3.45-1.35 0.9-0.9 1.35-2.083 1.35-3.55zM70.1 0h-4.55v-25.25h4.55zM70.1-16.9h-2.05c0-1.7 0.283-3.227 0.85-4.58 0.567-1.347 1.34-2.403 2.32-3.17 0.987-0.767 2.08-1.15 3.28-1.15v0l-0.4 4.25c-1.167 0-2.127 0.44-2.88 1.32-0.747 0.887-1.12 1.997-1.12 3.33zM78.65-24.2l-1.55 3.8c-0.4-0.333-0.877-0.61-1.43-0.83-0.547-0.213-1.07-0.32-1.57-0.32v0l0.4-4.25c0.767 0 1.517 0.14 2.25 0.42 0.733 0.287 1.367 0.68 1.9 1.18zM86.75 0h-4.55v-25.25h4.55zM100.8 0h-4.55v-17.2h4.55zM100.8-17.2h-4.55c0-1.4-0.433-2.543-1.3-3.43-0.867-0.88-1.983-1.32-3.35-1.32v0l1.15-4.05c1.533 0 2.91 0.383 4.13 1.15 1.213 0.767 2.17 1.817 2.87 3.15 0.7 1.333 1.05 2.833 1.05 4.5zM86.75-17.1h-2c0-1.7 0.35-3.227 1.05-4.58 0.7-1.347 1.65-2.403 2.85-3.17 1.2-0.767 2.567-1.15 4.1-1.15v0l-1.15 4.05c-1.433 0-2.6 0.45-3.5 1.35-0.9 0.9-1.35 2.067-1.35 3.5zM124 0h-4.55v-17.2h4.55zM113.35 0.75v0l0.35-3.75c1.2 0 2.227-0.3 3.08-0.9 0.847-0.6 1.503-1.483 1.97-2.65 0.467-1.167 0.7-2.55 0.7-4.15v0l2.25-0.1c0 2.267-0.367 4.267-1.1 6-0.733 1.733-1.723 3.09-2.97 4.07-1.253 0.987-2.68 1.48-4.28 1.48zM113.7-3l-0.35 3.75c-1.5 0-2.867-0.35-4.1-1.05-1.233-0.7-2.217-1.66-2.95-2.88-0.733-1.213-1.1-2.57-1.1-4.07v0l4.3-0.15c0 1.267 0.427 2.317 1.28 3.15 0.847 0.833 1.82 1.25 2.92 1.25zM109.5-7.4l-4.3 0.15c0-1.567 0.393-2.943 1.18-4.13 0.78-1.18 1.837-2.12 3.17-2.82 1.333-0.7 2.85-1.05 4.55-1.05v0l0.25 3.5c-1.4 0-2.557 0.407-3.47 1.22-0.92 0.82-1.38 1.863-1.38 3.13zM121.8-11.75h-7.45l-0.25-3.5h7.7zM121.7-10.8l-2.25 0.1v-6.45h2.25zM124-17.1v0h-4.55c0-1.467-0.44-2.667-1.32-3.6-0.887-0.933-2.03-1.4-3.43-1.4v0-3.9c1.8 0 3.393 0.383 4.78 1.15 1.38 0.767 2.48 1.823 3.3 3.17 0.813 1.353 1.22 2.88 1.22 4.58zM110-17.7v0l-4.2-0.85c0.2-1.5 0.71-2.8 1.53-3.9 0.813-1.1 1.863-1.967 3.15-2.6 1.28-0.633 2.703-0.95 4.27-0.95v0 3.9c-1.233 0-2.29 0.357-3.17 1.07-0.887 0.72-1.413 1.83-1.58 3.33zM133.7 0h-4.55v-25.25h4.55zM146.75 0h-4.55v-17.2h4.55zM133.7-17.1h-2.05c0-1.7 0.327-3.227 0.98-4.58 0.647-1.347 1.537-2.403 2.67-3.17 1.133-0.767 2.4-1.15 3.8-1.15v0l-1.15 4.05c-1.2 0-2.207 0.45-3.02 1.35-0.82 0.9-1.23 2.067-1.23 3.5zM146.75-17.2h-4.55c0-1.4-0.4-2.543-1.2-3.43-0.8-0.88-1.817-1.32-3.05-1.32v0l1.15-4.05c1.467 0 2.777 0.383 3.93 1.15 1.147 0.767 2.053 1.807 2.72 3.12 0.667 1.32 1 2.83 1 4.53zM159.75 0h-4.55v-17.2h4.55zM146.75-17.1h-2.05c0-1.7 0.327-3.227 0.98-4.58 0.647-1.347 1.53-2.403 2.65-3.17 1.113-0.767 2.37-1.15 3.77-1.15v0l-1.15 4.05c-1.2 0-2.2 0.45-3 1.35-0.8 0.9-1.2 2.067-1.2 3.5zM159.75-17.2h-4.55c0-1.4-0.39-2.543-1.17-3.43-0.787-0.88-1.813-1.32-3.08-1.32v0l1.15-4.05c1.467 0 2.777 0.383 3.93 1.15 1.147 0.767 2.053 1.807 2.72 3.12 0.667 1.32 1 2.83 1 4.53zM182.15-11.25h-17.05v-3.25h17.05zM173.1 0.8h-0.25v-3.95h0.25zM168.2-8.95h-4.55v-7.35h4.55zM182.15-14.5h-4.55v-2.6h4.55zM182.15-17.1v0h-4.55c0-1.467-0.44-2.667-1.32-3.6-0.887-0.933-2.03-1.4-3.43-1.4v0-3.9c1.8 0 3.393 0.383 4.78 1.15 1.38 0.767 2.48 1.823 3.3 3.17 0.813 1.353 1.22 2.88 1.22 4.58zM177.8-7.5v0l4.25 0.85c-0.2 1.433-0.717 2.717-1.55 3.85-0.833 1.133-1.883 2.017-3.15 2.65-1.267 0.633-2.683 0.95-4.25 0.95v0-3.95c1.2 0 2.243-0.36 3.13-1.08 0.88-0.713 1.403-1.803 1.57-3.27zM168.2-16.25h-4.55c0-1.9 0.41-3.577 1.23-5.03 0.813-1.447 1.913-2.597 3.3-3.45 1.38-0.847 2.953-1.27 4.72-1.27v0 3.9c-1.467 0-2.617 0.507-3.45 1.52-0.833 1.02-1.25 2.463-1.25 4.33zM163.65-8.95v0h4.55c0 1.833 0.417 3.26 1.25 4.28 0.833 1.013 1.983 1.52 3.45 1.52v0 3.95c-1.767 0-3.34-0.427-4.72-1.28-1.387-0.847-2.487-2.003-3.3-3.47-0.82-1.467-1.23-3.133-1.23-5zM191.35 0h-4.55v-25.25h4.55zM205.4 0h-4.55v-17.2h4.55zM205.4-17.2h-4.55c0-1.4-0.433-2.543-1.3-3.43-0.867-0.88-1.983-1.32-3.35-1.32v0l1.15-4.05c1.533 0 2.91 0.383 4.13 1.15 1.213 0.767 2.17 1.817 2.87 3.15 0.7 1.333 1.05 2.833 1.05 4.5zM191.35-17.1h-2c0-1.7 0.35-3.227 1.05-4.58 0.7-1.347 1.65-2.403 2.85-3.17 1.2-0.767 2.567-1.15 4.1-1.15v0l-1.15 4.05c-1.433 0-2.6 0.45-3.5 1.35-0.9 0.9-1.35 2.067-1.35 3.5zM216.75-7.65h-4.55v-27.65l4.55 0.05zM223.05-21.5h-13.75v-3.75h13.75zM212.2-7.7v0h4.55c0 0.967 0.133 1.783 0.4 2.45 0.267 0.667 0.65 1.173 1.15 1.52 0.5 0.353 1.1 0.53 1.8 0.53v0l-0.4 3.95c-2.333 0-4.167-0.743-5.5-2.23-1.333-1.48-2-3.553-2-6.22zM222.45-4.05v0l1.8 3.25c-0.667 0.5-1.39 0.883-2.17 1.15-0.787 0.267-1.58 0.4-2.38 0.4v0l0.4-3.95c0.433 0 0.843-0.077 1.23-0.23 0.38-0.147 0.753-0.353 1.12-0.62zM239.2-6.5v0c0-0.833-0.3-1.527-0.9-2.08-0.6-0.547-1.373-1.047-2.32-1.5-0.953-0.447-1.953-0.903-3-1.37-1.053-0.467-2.053-1.01-3-1.63-0.953-0.613-1.73-1.397-2.33-2.35-0.6-0.947-0.9-2.103-0.9-3.47v0c0 0 0.143 0 0.43 0 0.28 0 0.647 0 1.1 0 0.447 0 0.887 0 1.32 0 0.433 0 0.8 0 1.1 0 0.3 0 0.45 0 0.45 0v0c0 0.833 0.3 1.527 0.9 2.08 0.6 0.547 1.377 1.037 2.33 1.47 0.947 0.433 1.953 0.89 3.02 1.37 1.067 0.487 2.067 1.047 3 1.68 0.933 0.633 1.71 1.407 2.33 2.32 0.613 0.92 0.92 2.08 0.92 3.48v0c0 0-0.15 0-0.45 0-0.3 0-0.673 0-1.12 0-0.453 0-0.897 0-1.33 0-0.433 0-0.8 0-1.1 0-0.3 0-0.45 0-0.45 0zM234.95 0.75v0-3.95c1.233 0 2.25-0.31 3.05-0.93 0.8-0.613 1.2-1.403 1.2-2.37v0h4.45c0 1.4-0.373 2.65-1.12 3.75-0.753 1.1-1.78 1.957-3.08 2.57-1.3 0.62-2.8 0.93-4.5 0.93zM231.15-18.9h-4.4c0-1.367 0.343-2.593 1.03-3.68 0.68-1.08 1.637-1.93 2.87-2.55 1.233-0.613 2.6-0.92 4.1-0.92v0 3.95c-1.033 0-1.89 0.3-2.57 0.9-0.687 0.6-1.03 1.367-1.03 2.3zM226-6.7l4.2-0.85c0.167 1.467 0.7 2.557 1.6 3.27 0.9 0.72 1.95 1.08 3.15 1.08v0 3.95c-1.533 0-2.95-0.317-4.25-0.95-1.3-0.633-2.357-1.517-3.17-2.65-0.82-1.133-1.33-2.417-1.53-3.85zM243.7-18.6l-4.25 0.85c-0.167-1.5-0.69-2.6-1.57-3.3-0.887-0.7-1.93-1.05-3.13-1.05v0-3.95c1.567 0 2.983 0.317 4.25 0.95 1.267 0.633 2.317 1.507 3.15 2.62 0.833 1.12 1.35 2.413 1.55 3.88z"
                                   fill="#919591"
                                   fill-rule="nonzero"
                                   stroke="none"
                                   stroke-width="1"
                                   stroke-linecap="butt"
                                   stroke-linejoin="miter"
                                   stroke-miterlimit="10"
                                   stroke-dasharray=""
                                   stroke-dashoffset="0"
                                   font-family="none"
                                   font-weight="none"
                                   font-size="none"
                                   text-anchor="none"
                                   style="mix-blend-mode: normal"
                                   data-fill-palette-color="primary"
                                   opacity="1"
                                   id="path3" />
                              </g>
                            </svg>
                          </g>
                        </svg>
                      </g>
                    </svg>
                  </g>
                </svg>
              </g>
              <g
                 transform="matrix(1,0,0,1,84.67999711865106,0)"
                 id="g12"
                 inkscape:export-filename="../../Projects/wa2324-dam/awesometournament/src/main/webapp/media/favicon.png"
                 inkscape:export-xdpi="96"
                 inkscape:export-ydpi="96">
                <svg
                   viewBox="0 0 226.16000576269786 226.16000576269786"
                   height="226.16000576269786"
                   width="226.16000576269786"
                   version="1.1"
                   id="svg12">
                  <g
                     id="g6">
                    <svg
                       version="1.1"
                       id="svg6" />
                  </g>
                  <g
                     id="icon-0">
                    <svg
                       viewBox="0 0 226.16000576269786 226.16000576269786"
                       height="226.16000576269786"
                       width="226.16000576269786"
                       version="1.1"
                       id="svg11">
                      <g
                         id="g7">
                        <path
                           d="M0 113.08c0-62.452 50.628-113.08 113.08-113.08 62.452 0 113.08 50.628 113.08 113.08 0 62.452-50.628 113.08-113.08 113.08-62.452 0-113.08-50.628-113.08-113.08zM113.08 220.838c59.513 0 107.758-48.245 107.758-107.758 0-59.513-48.245-107.758-107.758-107.758-59.513 0-107.758 48.245-107.758 107.758 0 59.513 48.245 107.758 107.758 107.758z"
                           data-fill-palette-color="accent"
                           fill="#636365"
                           stroke="transparent"
                           id="path6" />
                        <ellipse
                           rx="111.94920285253544"
                           ry="111.94920285253544"
                           cx="113.08000288134893"
                           cy="113.08000288134893"
                           fill="#636365"
                           stroke="transparent"
                           stroke-width="0"
                           fill-opacity="1"
                           data-fill-palette-color="accent"
                           id="ellipse6" />
                      </g>
                      <g
                         transform="matrix(1,0,0,1,48.71594238733279,48.76860989700327)"
                         id="g11">
                        <svg
                           viewBox="0 0 128.7281209880323 128.62278596869132"
                           height="128.62278596869132"
                           width="128.7281209880323"
                           version="1.1"
                           id="svg10">
                          <g
                             id="g10">
                            <svg
                               version="1.1"
                               x="0"
                               y="0"
                               viewBox="15.372000000000002 15.39940339533729 69.25730607436887 69.20063454355763"
                               enable-background="new 0 0 100 100"
                               xml:space="preserve"
                               height="128.62278596869132"
                               width="128.7281209880323"
                               class="icon-dxe-0"
                               data-fill-palette-color="quaternary"
                               id="dxe-0"><g
                                 fill="#ffffff"
                                 data-fill-palette-color="quaternary"
                                 id="g9"><path
                                   fill="#ffffff"
                                   d="M57.081 15.456S52.525 14.696 51.47 18.746C50.414 22.797 51.149 27.121 53.856 27.826 56.561 28.533 59.407 24.759 60.371 21.066 61.332 17.375 58.169 15.74 57.081 15.456"
                                   data-fill-palette-color="quaternary"
                                   id="path7" /><circle
                                   fill="#ffffff"
                                   cx="22.103"
                                   cy="60.376"
                                   r="6.7"
                                   data-fill-palette-color="quaternary"
                                   id="circle7" /><path
                                   fill="#ffffff"
                                   d="M31.954 84.319S29.319 83.15 30.936 79.946C32.552 76.74 39.042 65.284 39.042 65.284L40.692 51.661 30.412 55.51S29.199 52.21 24.852 51.166L39.293 43.952 45.804 30.852 35.09 33.902 25.694 39.8S23.447 40.593 22.493 39.041 22.509 35.849 23.537 35.321C24.562 34.794 33.638 28.965 33.638 28.965L47.53 23.196S48.1 23.092 48.643 23.173C48.643 23.173 49.158 29.195 53.152 30.376 57.142 31.558 61.287 25.98 61.287 25.98S62.02 26.172 63.135 26.634C63.795 26.91 71.688 30.924 71.688 30.924L81.437 27.99S83.924 27.405 84.501 29.604C85.115 31.948 83.343 32.618 83.026 32.71 82.711 32.805 71.465 35.929 71.465 35.929L60.549 33.042S59.917 34.518 61.305 35.404L50.219 51.389 45.233 67.108 35.487 83.5C35.486 83.499 34.241 85.271 31.954 84.319"
                                   data-fill-palette-color="quaternary"
                                   id="path8" /><path
                                   fill="#ffffff"
                                   d="M38.811 42.269C39.349 39.664 35.608 37.847 35.608 37.847L24.811 49.487z"
                                   data-fill-palette-color="quaternary"
                                   id="path9" /></g></svg>
                          </g>
                        </svg>
                      </g>
                    </svg>
                  </g>
                </svg>
              </g>
              <g
                 id="g13" />
            </svg>
          </g>
          <defs
             id="defs14" />
        </svg>
        <rect
           width="256.0441110869351"
           height="247.2"
           fill="none"
           stroke="none"
           visibility="hidden"
           id="rect14"
           inkscape:export-filename="../../Projects/wa2324-dam/awesometournament/src/main/webapp/media/AT_logo.png"
           inkscape:export-xdpi="96"
           inkscape:export-ydpi="96" />
      </g>
    </svg>
  </g>
</svg>
